<svg xmlns="http://www.w3.org/2000/svg" width="31.378" height="31.374" viewBox="0 0 31.378 31.374"><defs><style>.a{opacity:0.7;}.b{fill:#fff;}</style></defs><g class="a"><g transform="translate(4.185 18.824)"><path class="b" d="M71.877,290.646H69.786v-2.091a.523.523,0,0,0-.523-.523H67.171a.523.523,0,0,0-.523.523v2.091H64.557a.523.523,0,0,0-.523.523v2.092a.523.523,0,0,0,.523.523h2.092v2.092a.523.523,0,0,0,.523.523h2.092a.523.523,0,0,0,.523-.523v-2.092h2.092a.523.523,0,0,0,.523-.523v-2.092A.523.523,0,0,0,71.877,290.646Zm-.523,2.092H69.263a.523.523,0,0,0-.523.523v2.092H67.694v-2.092a.523.523,0,0,0-.523-.523H65.08v-1.046h2.092a.523.523,0,0,0,.523-.523v-2.092H68.74v2.092a.523.523,0,0,0,.523.523h2.092Z" transform="translate(-64.034 -288.032)"/></g><g transform="translate(0 0)"><g transform="translate(0)"><path class="b" d="M31.324,22.084a8.834,8.834,0,0,0-7.392-7.359,8.679,8.679,0,0,0-.922-.052H17.258V12.581H16.212V11.536A2.092,2.092,0,0,0,14.12,9.444H11.506a1.046,1.046,0,0,1,0-2.092h8.366a2.092,2.092,0,0,0,0-4.183H17.258a1.046,1.046,0,0,1-1.046-1.046V.032H15.166V2.124a2.092,2.092,0,0,0,2.092,2.092h2.614a1.046,1.046,0,0,1,0,2.092H11.506a2.092,2.092,0,0,0,0,4.183H14.12a1.046,1.046,0,0,1,1.046,1.046v1.046H14.12v2.092H8.369a8.53,8.53,0,0,0-.923.052,8.835,8.835,0,0,0-7.39,7.361,8.366,8.366,0,0,0,12.717,8.064,5.121,5.121,0,0,1,2.295-.811,8.064,8.064,0,0,1,1.216,0,5.16,5.16,0,0,1,2.331.82,8.366,8.366,0,0,0,12.71-8.071ZM15.166,13.627h1.046v1.046H15.166Zm13.3,14.293a7.316,7.316,0,0,1-9.3,1.346,6.17,6.17,0,0,0-2.807-.974q-.331-.024-.668-.024c-.238,0-.471.01-.7.028a6.151,6.151,0,0,0-2.765.965A7.32,7.32,0,0,1,1.095,22.2a7.839,7.839,0,0,1,6.463-6.437,7.521,7.521,0,0,1,.811-.047H23.01a7.692,7.692,0,0,1,.811.043A7.841,7.841,0,0,1,30.283,22.2,7.268,7.268,0,0,1,28.466,27.92Z" transform="translate(0 -0.032)"/></g></g><g transform="translate(20.918 17.778)"><path class="b" d="M322.126,272.032a2.092,2.092,0,1,0,2.092,2.092A2.092,2.092,0,0,0,322.126,272.032Zm0,3.137a1.046,1.046,0,1,1,1.046-1.046A1.046,1.046,0,0,1,322.126,275.169Z" transform="translate(-320.034 -272.032)"/></g><g transform="translate(20.918 24.053)"><path class="b" d="M322.126,368.032a2.092,2.092,0,1,0,2.092,2.092A2.092,2.092,0,0,0,322.126,368.032Zm0,3.137a1.046,1.046,0,1,1,1.046-1.046A1.046,1.046,0,0,1,322.126,371.169Z" transform="translate(-320.034 -368.032)"/></g><g transform="translate(17.258 20.916)"><path class="b" d="M266.126,320.032a2.092,2.092,0,1,0,2.092,2.092A2.092,2.092,0,0,0,266.126,320.032Zm0,3.137a1.046,1.046,0,1,1,1.046-1.046A1.046,1.046,0,0,1,266.126,323.169Z" transform="translate(-264.034 -320.032)"/></g><g transform="translate(24.578 20.916)"><path class="b" d="M378.126,320.032a2.092,2.092,0,1,0,2.092,2.092A2.092,2.092,0,0,0,378.126,320.032Zm0,3.137a1.046,1.046,0,1,1,1.046-1.046A1.046,1.046,0,0,1,378.126,323.169Z" transform="translate(-376.034 -320.032)"/></g></g></svg>