<svg xmlns="http://www.w3.org/2000/svg" width="31.378" height="31.01" viewBox="0 0 31.378 31.01"><defs><style>.a{opacity:0.7;}.b{fill:#fff;}</style></defs><g class="a"><g transform="translate(18.383 15.517)"><path class="b" d="M302.528,260.623a1.179,1.179,0,1,1,1.348-1.167.613.613,0,1,0,1.226,0,2.439,2.439,0,0,0-1.961-2.324v-.319a.613.613,0,1,0-1.226,0v.319a2.438,2.438,0,0,0-1.961,2.324,2.491,2.491,0,0,0,2.574,2.393,1.179,1.179,0,1,1-1.348,1.167.613.613,0,0,0-1.226,0,2.438,2.438,0,0,0,1.961,2.324v.265a.613.613,0,0,0,1.226,0v-.265a2.439,2.439,0,0,0,1.961-2.324A2.491,2.491,0,0,0,302.528,260.623Z" transform="translate(-299.954 -256.201)"/></g><g transform="translate(23.529 13.347)"><path class="b" d="M388.065,223.732a7.984,7.984,0,0,0-3.262-2.887.613.613,0,1,0-.531,1.1,6.747,6.747,0,0,1,3.039,9.241.613.613,0,1,0,1.082.576,7.976,7.976,0,0,0-.328-8.035Z" transform="translate(-383.924 -220.785)"/></g><g transform="translate(21.266 12.625)"><path class="b" d="M347.654,209h-.041a.613.613,0,0,0,0,1.226h.038a.613.613,0,0,0,0-1.226Z" transform="translate(-347 -209.001)"/></g><g transform="translate(12.993 16.529)"><path class="b" d="M217.052,282.853a6.747,6.747,0,0,1-3.039-9.241.613.613,0,0,0-1.082-.576,7.971,7.971,0,0,0,3.59,10.922.613.613,0,1,0,.531-1.1Z" transform="translate(-212.002 -272.711)"/></g><g transform="translate(19.389 27.333)"><g transform="translate(0 0)"><path class="b" d="M317.029,449h-.036a.613.613,0,0,0-.006,1.226h.041a.613.613,0,1,0,0-1.226Z" transform="translate(-316.378 -448.999)"/></g></g><g transform="translate(0 0)"><g transform="translate(0 0)"><path class="b" d="M23.742,13.551a2.813,2.813,0,0,0-.272-.5h1.6a2.819,2.819,0,0,0,0-5.638H20.158A2.817,2.817,0,0,0,17.834,3H2.819a2.819,2.819,0,0,0,0,5.638H7.727a2.811,2.811,0,0,0,0,3.187h-1.6A2.817,2.817,0,0,0,4.377,16.85a2.814,2.814,0,0,0,0,4.413,2.814,2.814,0,0,0,0,4.413A2.817,2.817,0,0,0,6.128,30.7h7.222a10.416,10.416,0,1,0,10.391-17.15Zm1.323-4.913a1.593,1.593,0,0,1,0,3.187H10.051a1.593,1.593,0,0,1,0-3.187ZM2.819,7.413a1.593,1.593,0,0,1,0-3.187H17.834a1.593,1.593,0,0,1,0,3.187Zm3.309,5.638H21.143a1.593,1.593,0,0,1,.7.16c-.29-.024-.583-.037-.879-.037a10.386,10.386,0,0,0-7.373,3.064H6.128a1.593,1.593,0,0,1,0-3.187Zm0,4.413H12.54a10.389,10.389,0,0,0-1.575,3.187H6.128a1.593,1.593,0,0,1,0-3.187Zm0,4.413h4.555a10.427,10.427,0,0,0-.038,3.187H6.128a1.593,1.593,0,0,1,0-3.187Zm0,7.6a1.593,1.593,0,0,1,0-3.187H10.9a10.377,10.377,0,0,0,1.47,3.187ZM20.96,32.785a9.193,9.193,0,1,1,9.193-9.193A9.2,9.2,0,0,1,20.96,32.785Z" transform="translate(0 -3)"/></g></g></g></svg>