<svg xmlns="http://www.w3.org/2000/svg" width="31.378" height="31.378" viewBox="0 0 31.378 31.378"><defs><style>.a{opacity:0.8;}.b{fill:#fff;}</style></defs><g class="a"><path class="b" d="M28.314,0H12.38A3.068,3.068,0,0,0,9.315,3.064V8.58H3.064A3.068,3.068,0,0,0,0,11.644V24.637A3.068,3.068,0,0,0,3.064,27.7H4.29v3.064a.613.613,0,0,0,1.046.433l3.5-3.5H19a3.068,3.068,0,0,0,3.064-3.064V19.121h1.226v3.064a.613.613,0,0,0,1.046.433l3.5-3.5H28.8c1.564,0,2.574-1.2,2.574-3.064V3.064A3.068,3.068,0,0,0,28.314,0ZM20.837,24.637A1.841,1.841,0,0,1,19,26.475H8.58a.613.613,0,0,0-.433.18L5.516,29.286v-2.2a.613.613,0,0,0-.613-.613H3.064a1.841,1.841,0,0,1-1.839-1.839V11.644A1.841,1.841,0,0,1,3.064,9.806H19a1.841,1.841,0,0,1,1.839,1.839Zm9.315-8.58c0,.687-.175,1.839-1.348,1.839H27.578a.613.613,0,0,0-.433.18l-2.631,2.631v-2.2A.613.613,0,0,0,23.9,17.9H22.063V13.483h3.8a.613.613,0,0,0,0-1.226h-3.8v-.613A3.068,3.068,0,0,0,19,8.58H10.541V3.064A1.841,1.841,0,0,1,12.38,1.226H28.314a1.841,1.841,0,0,1,1.839,1.839Z"/><path class="b" d="M243.644,80H232.613a.613.613,0,1,0,0,1.226h11.031a.613.613,0,0,0,0-1.226Z" transform="translate(-217.782 -75.097)"/><path class="b" d="M375.064,140h-2.451a.613.613,0,1,0,0,1.226h2.451a.613.613,0,1,0,0-1.226Z" transform="translate(-349.202 -131.42)"/><path class="b" d="M80.613,221.226a.613.613,0,1,0-.613-.613A.614.614,0,0,0,80.613,221.226Z" transform="translate(-75.097 -206.517)"/><path class="b" d="M129.193,220h-8.58a.613.613,0,1,0,0,1.226h8.58a.613.613,0,1,0,0-1.226Z" transform="translate(-112.646 -206.517)"/><path class="b" d="M166.741,280h-6.129a.613.613,0,0,0,0,1.226h6.129a.613.613,0,0,0,0-1.226Z" transform="translate(-150.194 -262.84)"/><path class="b" d="M80.613,281.226h2.451a.613.613,0,0,0,0-1.226H80.613a.613.613,0,0,0,0,1.226Z" transform="translate(-75.097 -262.84)"/><path class="b" d="M88.619,340H82.613a.613.613,0,0,0,0,1.226h6.006a.613.613,0,0,0,0-1.226Z" transform="translate(-76.975 -319.163)"/></g></svg>