<svg id="i-footer-3" xmlns="http://www.w3.org/2000/svg" width="18" height="18" viewBox="0 0 18 18">
  <g id="Group_44" data-name="Group 44">
    <g id="Group_43" data-name="Group 43">
      <path id="Path_83" data-name="Path 83" d="M12.375,0H5.625A5.626,5.626,0,0,0,0,5.625v6.75A5.626,5.626,0,0,0,5.625,18h6.75A5.626,5.626,0,0,0,18,12.375V5.625A5.626,5.626,0,0,0,12.375,0Zm3.938,12.375a3.942,3.942,0,0,1-3.937,3.938H5.625a3.942,3.942,0,0,1-3.937-3.937V5.625A3.942,3.942,0,0,1,5.625,1.688h6.75a3.942,3.942,0,0,1,3.938,3.938Z" fill="#fff"/>
    </g>
  </g>
  <g id="Group_46" data-name="Group 46" transform="translate(4.5 4.5)">
    <g id="Group_45" data-name="Group 45">
      <path id="Path_84" data-name="Path 84" d="M132.5,128a4.5,4.5,0,1,0,4.5,4.5A4.5,4.5,0,0,0,132.5,128Zm0,7.313a2.813,2.813,0,1,1,2.813-2.812A2.816,2.816,0,0,1,132.5,135.313Z" transform="translate(-128 -128)" fill="#fff"/>
    </g>
  </g>
  <g id="Group_48" data-name="Group 48" transform="translate(13.238 3.563)">
    <g id="Group_47" data-name="Group 47">
      <circle id="Ellipse_6" data-name="Ellipse 6" cx="0.6" cy="0.6" r="0.6" fill="#fff"/>
    </g>
  </g>
</svg>
