<svg xmlns="http://www.w3.org/2000/svg" width="21.873" height="20.96" viewBox="0 0 21.873 20.96">
  <path id="i-support" d="M14.064,23.357v-.381a3.969,3.969,0,0,0,.31-.282,5.659,5.659,0,0,0,1.432-3.155,2.782,2.782,0,0,0,1.8-1.068,3.988,3.988,0,0,0,.153-3.6.414.414,0,0,0-.166-.215l-.228-.153a5.613,5.613,0,0,0-1.341-3.78,6.51,6.51,0,0,0-5.088-1.9,6.538,6.538,0,0,0-5.088,1.879,5.613,5.613,0,0,0-1.341,3.78l-.228.153a.414.414,0,0,0-.166.215,3.985,3.985,0,0,0,.153,3.6,2.79,2.79,0,0,0,1.8,1.08A5.663,5.663,0,0,0,7.5,22.694a4.039,4.039,0,0,0,.31.282v.381C6.223,23.663-.107,25.149,0,29.372a.414.414,0,0,0,.414.414H21.458a.414.414,0,0,0,.414-.414C21.979,25.149,15.649,23.663,14.064,23.357ZM5.813,18.613a1.8,1.8,0,0,1-.878-.642l.021,0a3.181,3.181,0,0,1-.083-2.728l.3-.2a.414.414,0,0,0,.182-.385,4.893,4.893,0,0,1,1.126-3.407,5.706,5.706,0,0,1,4.45-1.6,5.71,5.71,0,0,1,4.467,1.6,4.893,4.893,0,0,1,1.126,3.407.414.414,0,0,0,.182.385l.3.2a3.139,3.139,0,0,1-.083,2.728,1.805,1.805,0,0,1-.882.642,2.757,2.757,0,0,0,.675-2.07,1.937,1.937,0,0,0-.667-1.159c-.178-4.14-3.08-4.6-4.33-4.6a5.218,5.218,0,0,0-.791.058,5.211,5.211,0,0,0-.791-.058c-1.242,0-4.14.455-4.33,4.6a1.937,1.937,0,0,0-.675,1.155A2.753,2.753,0,0,0,5.813,18.613Zm9.418-3.395a8.528,8.528,0,0,1-4.947-1.242.414.414,0,0,0-.538.054,4.827,4.827,0,0,1-3.068,1.143c.224-2.927,2-3.564,3.486-3.564a4,4,0,0,1,.708.058.413.413,0,0,0,.166,0,4.021,4.021,0,0,1,.708-.058c1.478,0,3.258.654,3.465,3.606ZM6.823,18.691l.017,0a.414.414,0,0,0-.1-.277,2.334,2.334,0,0,1-.758-1.73,1.1,1.1,0,0,1,.377-.7,6.2,6.2,0,0,0,3.726-1.176,9.335,9.335,0,0,0,4.6,1.242,5.459,5.459,0,0,0,.853-.046,1.093,1.093,0,0,1,.373.679,2.346,2.346,0,0,1-.758,1.73.414.414,0,0,0-.1.277v.215L12.632,20.2a1.192,1.192,0,1,0,.373.865q0-.056,0-.112l1.9-1.018a4.554,4.554,0,0,1-1.109,2.186A3.689,3.689,0,0,1,11.05,23.15h-.207A3.7,3.7,0,0,1,8.1,22.127,5.277,5.277,0,0,1,6.823,18.691Zm5.353,2.376a.368.368,0,1,1-.368-.368A.368.368,0,0,1,12.176,21.067ZM10.52,28.933H.841c.327-3.109,5.382-4.409,6.963-4.744v.741c0,.94,1.143,1.656,2.716,1.776Zm-1.888-4V23.5a5.005,5.005,0,0,0,2.2.464h.207a5.005,5.005,0,0,0,2.2-.464V24.93c0,.393-.9.96-2.3.96S8.633,25.323,8.633,24.93Zm2.716,4.016V26.7c1.573-.108,2.716-.828,2.716-1.776V24.2c1.594.331,6.624,1.631,6.963,4.744H11.348Z" transform="translate(0 -8.826)" fill="#fff"/>
</svg>
