<svg xmlns="http://www.w3.org/2000/svg" width="13.125" height="21.767" viewBox="0 0 13.125 21.767">
  <g id="icon-2-grey" transform="translate(-7.788 -400.617)">
    <path id="Path_126" data-name="Path 126" d="M24.625,28v2.225a5.562,5.562,0,0,1-11.125,0V28" transform="translate(-4.712 383)" fill="none" stroke="#c1c1c1" stroke-linecap="round" stroke-miterlimit="10" stroke-width="2"/>
    <path id="Path_127" data-name="Path 127" d="M22.208,16.317h0A3.719,3.719,0,0,1,18.5,12.608v-8.9A3.719,3.719,0,0,1,22.208,0h0a3.719,3.719,0,0,1,3.708,3.708v8.9A3.719,3.719,0,0,1,22.208,16.317Z" transform="translate(-7.858 400.617)" fill="#c1c1c1"/>
    <line id="Line_2" data-name="Line 2" y2="2.596" transform="translate(14.35 418.787)" fill="none" stroke="#c1c1c1" stroke-linecap="round" stroke-miterlimit="10" stroke-width="2"/>
    <path id="Path_129" data-name="Path 129" d="M26.95,56H22.5" transform="translate(-10.375 365.383)" fill="none" stroke="#c1c1c1" stroke-linecap="round" stroke-miterlimit="10" stroke-width="2"/>
    <path id="Path_128" data-name="Path 128" d="M32.208,12.608v-8.9A3.719,3.719,0,0,0,28.5,0V16.317A3.719,3.719,0,0,0,32.208,12.608Z" transform="translate(-14.15 400.617)" fill="#c1c1c1"/>
  </g>
</svg>
