<svg xmlns="http://www.w3.org/2000/svg" width="37.158" height="23.534" viewBox="0 0 37.158 23.534"><defs><style>.a{opacity:0.7;}.b{fill:#ff6464;}</style></defs><g class="a"><path class="b" d="M69.574,89.909H65.239v-9.29a.619.619,0,1,0-1.239,0v9.909a.619.619,0,0,0,.619.619h4.954a.619.619,0,0,0,0-1.239Zm0,0" transform="translate(-59.046 -73.807)"/><path class="b" d="M341.574,81.239a.619.619,0,0,0,0-1.239h-4.954a.619.619,0,0,0-.619.619v9.909a.619.619,0,0,0,.619.619h4.954a.619.619,0,0,0,0-1.239h-4.335V86.193h3.1a.619.619,0,1,0,0-1.239h-3.1V81.239Zm0,0" transform="translate(-309.989 -73.807)"/><path class="b" d="M168.619,80a.619.619,0,0,0-.619.619v9.909a.619.619,0,1,0,1.239,0V80.619A.619.619,0,0,0,168.619,80Zm0,0" transform="translate(-154.995 -73.807)"/><path class="b" d="M215.639,80.029a.619.619,0,0,0-.8.363l-3.082,8.221L209.2,80.424a.62.62,0,1,0-1.183.371l3.1,9.909a.619.619,0,0,0,.574.434h.017a.619.619,0,0,0,.58-.4L216,80.827a.619.619,0,0,0-.363-.8Zm0,0" transform="translate(-191.889 -73.797)"/><path class="b" d="M34.062,0H3.1A3.1,3.1,0,0,0,0,3.1v17.34a3.1,3.1,0,0,0,3.1,3.1H34.062a3.1,3.1,0,0,0,3.1-3.1V3.1A3.1,3.1,0,0,0,34.062,0ZM35.92,20.437a1.858,1.858,0,0,1-1.858,1.858H3.1a1.858,1.858,0,0,1-1.858-1.858V3.1A1.858,1.858,0,0,1,3.1,1.239H34.062A1.858,1.858,0,0,1,35.92,3.1Zm0,0"/></g></svg>