<svg id="logo" xmlns="http://www.w3.org/2000/svg" width="140" height="148" viewBox="0 0 140 148">
  <rect id="Rectangle_243" data-name="Rectangle 243" width="140" height="148" fill="#fff"/>
  <path id="Path_19" data-name="Path 19" d="M320.117,258.795c.636-.114,1.275-.21,1.908-.339l1.9-.41,1.9-.409c.629-.148,1.253-.318,1.88-.477,2.515-.607,4.983-1.38,7.456-2.138l3.667-1.267c1.229-.4,2.413-.923,3.623-1.38l1.806-.707c.6-.236,1.186-.513,1.781-.767l3.554-1.558,3.486-1.7,1.743-.852,1.709-.916,5.429-3.129h-7.657l-.67.377-1.695.871-3.392,1.739-3.458,1.6c-.578.263-1.147.546-1.733.79l-1.761.731c-1.178.474-2.333,1.01-3.532,1.431l-3.575,1.319c-2.412.8-4.822,1.607-7.28,2.253-.612.169-1.222.35-1.837.507l-1.853.441-1.855.442c-.619.142-1.245.252-1.867.379-.685.136-1.371.272-2.057.4v3.16C318.524,259.068,319.319,258.933,320.117,258.795Z" transform="translate(-317.726 -242.75)" fill="#48b7fd"/>
  <path id="Path_20" data-name="Path 20" d="M325.366,294.268l4.713-2.09c.78-.361,1.582-.671,2.344-1.073l2.3-1.164,2.3-1.165c.766-.393,1.542-.76,2.282-1.2l4.482-2.565c.755-.413,1.479-.879,2.2-1.349l2.173-1.4,2.171-1.4,2.1-1.5,2.1-1.509,1.049-.756c.345-.257.676-.535,1.013-.8l4.032-3.24,3.866-3.438c1.272-1.163,2.47-2.407,3.708-3.607.305-.306.619-.6.915-.914l.876-.954,1.75-1.906q3.458-3.848,6.53-8.023c.53-.681,1.022-1.391,1.5-2.1l1.462-2.136c.953-1.437,1.832-2.924,2.742-4.388q.8-1.41,1.573-2.831h-4.773c-.131.223-.262.448-.395.671-.9,1.386-1.773,2.792-2.715,4.151l-1.433,2.021c-.474.679-.955,1.35-1.474,1.994q-3.009,3.944-6.381,7.587l-1.708,1.8-.852.9c-.288.3-.6.574-.892.861-1.208,1.13-2.373,2.3-3.611,3.4l-3.76,3.237-3.918,3.043c-.33.252-.65.513-.985.756l-1.02.708-2.039,1.417-2.041,1.412-2.111,1.31-2.109,1.309c-.7.44-1.4.879-2.138,1.264l-4.353,2.4c-.716.417-1.474.758-2.216,1.124l-2.238,1.087-2.236,1.087c-.739.375-1.521.662-2.279,1l-4.581,1.946c-1.535.629-3.112,1.158-4.665,1.745-.3.116-.605.221-.906.332v5.934c.953-.343,1.9-.7,2.844-1.083C322.167,295.521,323.785,294.946,325.366,294.268Z" transform="translate(-317.726 -242.75)" fill="#48b7fd"/>
  <path id="Path_21" data-name="Path 21" d="M427.579,242.75a73.383,73.383,0,0,1,9.547,17.668l-1.229.963-5.261,4.1-2.629,2.047c-.889.665-1.8,1.3-2.7,1.948l-5.409,3.888-1.347.976-1.387.918-2.772,1.84c-1.857,1.213-3.681,2.483-5.562,3.652l-5.686,3.451c-.949.574-1.885,1.172-2.843,1.727l-2.9,1.617-5.812,3.227-5.933,2.993c-.992.492-1.964,1.027-2.974,1.484l-3.02,1.38-3.021,1.384c-1.007.464-2.01.933-3.041,1.334l-6.148,2.516c-2.055.828-4.155,1.528-6.23,2.3-1.044.37-2.077.775-3.129,1.117l-3.165,1.006c-4.2,1.4-8.483,2.538-12.769,3.648l-6.47,1.5-6.52,1.257c-2.18.375-4.372.687-6.558,1.034-1.623.232-3.252.416-4.88.6v10.062c58.606,0,122.5-53.217,122.5-53.217q.462,2.244.785,4.53c-.267.473-.531.947-.8,1.418l-1.44,2.51c-.488.833-1,1.65-1.5,2.476l-1.506,2.473-1.565,2.434-1.558,2.44c-.522.812-1.08,1.6-1.617,2.4-1.088,1.595-2.154,3.205-3.31,4.75-2.235,3.148-4.61,6.191-7.017,9.208l-3.716,4.437c-1.274,1.448-2.581,2.865-3.872,4.3l-.97,1.075-1,1.039-2.015,2.077-2.018,2.075-2.1,1.986c-2.755,2.709-5.717,5.18-8.643,7.7l-4.566,3.563-1.142.892-1.182.833-2.366,1.673-2.366,1.679c-.792.553-1.626,1.039-2.438,1.562-1.643,1.018-3.257,2.091-4.928,3.065l-5.083,2.808-1.274.7-1.311.624-2.624,1.251-2.622,1.268a13.8,13.8,0,0,1-1.328.59l-1.348.552-5.4,2.208-5.53,1.867c-.843.277-1.682.573-2.529.837a73.117,73.117,0,0,1-30.586-17.352V390.75h140v-148Zm13.5,52.769a73.429,73.429,0,0,1-82.437,63.076c-1.168-.153-2.324-.337-3.472-.542l2.422-.639,5.708-1.891,1.43-.474c.48-.15.951-.32,1.413-.517l2.793-1.122,2.79-1.14,1.4-.57,1.36-.65,5.441-2.61c1.793-.91,3.53-1.924,5.3-2.886.877-.5,1.777-.955,2.633-1.482l2.56-1.6,2.561-1.605,1.273-.814,1.232-.872,4.935-3.493c3.169-2.48,6.385-4.921,9.389-7.607l2.292-1.974,2.2-2.062,2.2-2.069,1.1-1.036,1.052-1.083c1.4-1.447,2.818-2.879,4.2-4.344l4.042-4.489c2.621-3.052,5.211-6.138,7.656-9.332,1.263-1.57,2.432-3.206,3.626-4.825.59-.814,1.2-1.614,1.775-2.44l1.471-2.131C441.338,293.37,441.225,294.443,441.083,295.519Z" transform="translate(-317.726 -242.75)" fill="#48b7fd"/>
</svg>
