<svg id="nav-2" xmlns="http://www.w3.org/2000/svg" width="31.378" height="31.371" viewBox="0 0 31.378 31.371">
  <g id="Group_10" data-name="Group 10" transform="translate(0 0)">
    <path id="Path_49" data-name="Path 49" d="M15.695.05A15.686,15.686,0,0,0,1.273,9.562l-.2.065.076.227A15.685,15.685,0,1,0,15.695.05ZM28,23.644l-.805-.8V20.964a.522.522,0,0,0-.052-.234L25.1,16.658V14.69a.523.523,0,0,0-.233-.435L23.3,13.209a.523.523,0,0,0-.418-.072l-1.921.48-3.227-1.385-.444-3.11,1.23-1.23h2.641l.889,1.336a.523.523,0,0,0,.349.225l3.137.523a.518.518,0,0,0,.251-.02l2.889-.963A14.588,14.588,0,0,1,28,23.644ZM25.842,5.2l-.85.567-2.37-.474-1.538-.512a.513.513,0,0,0-.292-.012l-1.944.486L18,4.973l.632-1.263H20.4a.523.523,0,0,0,.234-.055l1.809-.9A14.694,14.694,0,0,1,25.842,5.2ZM9.963,2.263l1.255.837a.522.522,0,0,0,.2.081l2.534.422-.247.74-1.32.441a.523.523,0,0,0-.283.226l-1.5,2.5L8.192,8.959l-3.555.508a.523.523,0,0,0-.45.517v1.569a.523.523,0,0,0,.153.37l.893.893v.9l-2.175-1.45L2.269,9.9A14.724,14.724,0,0,1,9.963,2.263ZM8.474,19.406l-2.363-.473-.878-1.752V15.952L7.181,14,7.9,15.447a.523.523,0,0,0,.468.289h3.364L13.15,18.1a.523.523,0,0,0,.448.254h1.454l-.366,1.834-1.98,1.98a.523.523,0,0,0-.154.37V23.84l-1.882,1.412a.523.523,0,0,0-.209.418v1.889l-.65-.215-.918-2.3V19.919A.523.523,0,0,0,8.474,19.406ZM6.9,27.444A14.636,14.636,0,0,1,1.688,11.461l.434,1.3a.523.523,0,0,0,.205.27l2.606,1.737-.594.6a.523.523,0,0,0-.153.37V17.3a.523.523,0,0,0,.055.234l1.046,2.091a.523.523,0,0,0,.366.279l2.2.439v4.8a.523.523,0,0,0,.037.194l1.046,2.614a.523.523,0,0,0,.321.3l1.569.523a.514.514,0,0,0,.163.027.523.523,0,0,0,.523-.523V25.931l1.882-1.412A.523.523,0,0,0,13.6,24.1V22.749l1.938-1.938a.523.523,0,0,0,.143-.267L16.2,17.93a.523.523,0,0,0-.512-.625h-1.8l-1.416-2.361a.523.523,0,0,0-.448-.254H8.693l-.9-1.8a.523.523,0,0,0-.384-.282.512.512,0,0,0-.453.146l-.679.676V12.6a.523.523,0,0,0-.153-.37l-.893-.893v-.9l3.211-.459a.525.525,0,0,0,.2-.07l2.614-1.569a.523.523,0,0,0,.179-.179L12.9,5.714l1.385-.462a.518.518,0,0,0,.33-.33l.523-1.569a.523.523,0,0,0-.41-.68l-3.026-.5-.532-.354a14.6,14.6,0,0,1,10.056.374l-.955.477H18.3a.523.523,0,0,0-.471.289L16.788,5.045a.523.523,0,0,0,.3.729l1.569.523a.513.513,0,0,0,.292.012l1.944-.486,1.424.474a.384.384,0,0,0,.063.017L25,6.837a.519.519,0,0,0,.393-.077l1.19-.794a14.75,14.75,0,0,1,1.573,2.1l-2.572.857L22.794,8.46l-.92-1.38a.523.523,0,0,0-.432-.233H18.3a.523.523,0,0,0-.37.153L16.366,8.569a.523.523,0,0,0-.148.444l.523,3.66a.523.523,0,0,0,.314.406l3.66,1.569a.517.517,0,0,0,.333.027l1.867-.467,1.141.762v1.812a.522.522,0,0,0,.052.234l2.039,4.073v1.968a.523.523,0,0,0,.153.37l1.094,1.094A14.636,14.636,0,0,1,6.9,27.444Z" transform="translate(0 -0.05)" fill="#4b4b4b"/>
  </g>
</svg>
