<svg id="nav-3" xmlns="http://www.w3.org/2000/svg" width="34.391" height="25.495" viewBox="0 0 34.391 25.495">
  <g id="Group_12" data-name="Group 12" transform="translate(0 0)">
    <g id="Group_11" data-name="Group 11" transform="translate(0 0)">
      <path id="Path_50" data-name="Path 50" d="M34.231,73.269l-6.67-6.67a.549.549,0,0,0-.777,0l-3.335,3.335a.549.549,0,0,0,0,.777l.333.333-.765.764a1.717,1.717,0,0,1-1.916.337,4.744,4.744,0,0,0-4.23.157,3.7,3.7,0,0,0-2.15.115,1.71,1.71,0,0,1-1.814-.381l-1.373-1.373L11.7,70.5a.549.549,0,0,0,0-.777L8.363,66.387a.549.549,0,0,0-.777,0L.161,73.812a.549.549,0,0,0,0,.777L3.5,77.924a.549.549,0,0,0,.777,0l.2-.2.968.968a1.68,1.68,0,0,1,.468.882A8.626,8.626,0,0,0,8.3,84.111l.182.182a1.975,1.975,0,0,0,1.434,3.336l.1,0A1.975,1.975,0,0,0,11.986,89.7h.044A1.976,1.976,0,0,0,15.4,91.142c.031-.031.061-.064.09-.1a1.848,1.848,0,0,0,2.331-1.078l.056.056a1.847,1.847,0,0,0,3.037-.664,1.847,1.847,0,0,0,2.932-1.494,1.863,1.863,0,0,0-.052-.437,1.847,1.847,0,0,0,1.134-2.878l.441-.441a8.623,8.623,0,0,0,2.4-4.592,1.484,1.484,0,0,1,.419-.786l1.639-1.639.288.288a.549.549,0,0,0,.777,0l3.335-3.335a.549.549,0,0,0,0-.777ZM3.885,76.759,1.326,74.2l6.648-6.648,2.558,2.558Zm6.65,9.516a.878.878,0,1,1,0-1.242A.88.88,0,0,1,10.535,86.274Zm2.072,2.072a.878.878,0,1,1,0-1.242A.872.872,0,0,1,12.607,88.346Zm2.019,2.019a.878.878,0,1,1,0-1.242A.872.872,0,0,1,14.626,90.365Zm9.329-4.216a.747.747,0,0,1-1.057,0l-5.329-5.327a.549.549,0,1,0-.777.777l5.74,5.739A.748.748,0,0,1,21.474,88.4l-.968-.968-.016-.017-.005,0-4.451-4.451a.549.549,0,1,0-.777.777L19.722,88.2a.748.748,0,0,1-1.065,1.05L13.815,84.4a.549.549,0,0,0-.777.777l3.589,3.589,0,0A.748.748,0,0,1,16.1,90.05a.761.761,0,0,1-.142-.014,1.976,1.976,0,0,0-1.954-2.269h-.044a1.974,1.974,0,0,0-1.975-2.02l-.1,0a1.974,1.974,0,0,0-2.419-2.023l-.394-.394a7.531,7.531,0,0,1-2.086-3.96,2.774,2.774,0,0,0-.771-1.458l-.968-.968,5.509-5.509,1.373,1.373a2.8,2.8,0,0,0,1.982.81,2.88,2.88,0,0,0,.984-.173,2.586,2.586,0,0,1,.48-.123l-3.4,3.4a2.2,2.2,0,0,0,3.115,3.115L17,78.134l.462.463h0l.019.019.018.018h0l.016.015,6.44,6.44a.748.748,0,0,1,0,1.058Zm3.46-8.194a2.576,2.576,0,0,0-.724,1.369,7.529,7.529,0,0,1-2.1,4.01l-.422.422L20.7,80.281c.075.006.151.009.228.009A2.8,2.8,0,0,0,22,80.082a.549.549,0,0,0-.416-1.017c-1.414.578-3.109-1.016-3.3-1.2l-.01-.009-.019-.019h0l-.017-.017h0l-.462-.463.524-.524a.549.549,0,1,0-.777-.777l-.912.912h0l-2.1,2.1A1.1,1.1,0,1,1,12.952,77.5l3.617-3.617a3.643,3.643,0,0,1,4.078-.742,2.821,2.821,0,0,0,3.147-.56l.765-.764,4.5,4.5Zm3.092-1.739-5.893-5.893,2.558-2.558,5.893,5.893Z" transform="translate(0 -66.227)" fill="#4b4b4b"/>
    </g>
  </g>
  <g id="Group_14" data-name="Group 14" transform="translate(30.511 7.302)">
    <g id="Group_13" data-name="Group 13" transform="translate(0 0)">
      <ellipse id="Ellipse_4" data-name="Ellipse 4" cx="0.549" cy="0.549" rx="0.549" ry="0.549" fill="#4b4b4b"/>
    </g>
  </g>
  <g id="Group_16" data-name="Group 16" transform="translate(3.049 7.845)">
    <g id="Group_15" data-name="Group 15">
      <ellipse id="Ellipse_5" data-name="Ellipse 5" cx="0.549" cy="0.549" rx="0.549" ry="0.549" fill="#4b4b4b"/>
    </g>
  </g>
</svg>
