<svg id="nav-7" xmlns="http://www.w3.org/2000/svg" width="22.854" height="40.331" viewBox="0 0 22.854 40.331">
  <path id="Path_71" data-name="Path 71" d="M19.493,10.755H15.46V3.361H16.8a.672.672,0,0,0,.672-.672V.672A.672.672,0,0,0,16.8,0H6.05a.672.672,0,0,0-.672.672V2.689a.672.672,0,0,0,.672.672H7.394v7.394H3.361A3.365,3.365,0,0,0,0,14.116V34.953a3.365,3.365,0,0,0,3.361,3.361v1.344a.672.672,0,0,0,.672.672H6.722a.672.672,0,0,0,.672-.672V38.314H15.46v1.344a.672.672,0,0,0,.672.672h2.689a.672.672,0,0,0,.672-.672V38.314a3.365,3.365,0,0,0,3.361-3.361V14.116A3.365,3.365,0,0,0,19.493,10.755ZM6.722,1.344h9.411v.672H6.722ZM8.738,3.361h5.377v7.394H8.738ZM6.05,38.986H4.705v-.672H6.05Zm12.1,0H16.8v-.672h1.344Zm3.361-4.033a2.017,2.017,0,0,1-2.017,2.017H3.361a2.017,2.017,0,0,1-2.017-2.017V14.116A2.017,2.017,0,0,1,3.361,12.1H19.493a2.017,2.017,0,0,1,2.017,2.017Zm0,0" transform="translate(0 0)" fill="#4b4b4b"/>
  <path id="Path_72" data-name="Path 72" d="M128.672,160a.672.672,0,0,0-.672.672V181.51a.672.672,0,1,0,1.344,0V160.672A.672.672,0,0,0,128.672,160Zm0,0" transform="translate(-117.245 -146.556)" fill="#4b4b4b"/>
  <path id="Path_73" data-name="Path 73" d="M192.672,176a.672.672,0,0,0-.672.672v18.149a.672.672,0,0,0,1.344,0V176.672A.672.672,0,0,0,192.672,176Zm0,0" transform="translate(-175.868 -161.212)" fill="#4b4b4b"/>
  <path id="Path_74" data-name="Path 74" d="M64.672,176a.672.672,0,0,0-.672.672v18.149a.672.672,0,1,0,1.344,0V176.672A.672.672,0,0,0,64.672,176Zm0,0" transform="translate(-58.623 -161.212)" fill="#4b4b4b"/>
</svg>
