<svg xmlns="http://www.w3.org/2000/svg" width="31.378" height="28.24" viewBox="0 0 31.378 28.24">
  <path id="nav-1" d="M29.809,4.707h-6.8V2.615A2.618,2.618,0,0,0,20.4,0H10.982A2.618,2.618,0,0,0,8.367,2.615V4.707h-6.8A1.569,1.569,0,0,0,0,6.276V17.917a1.576,1.576,0,0,0,1.046,1.476v7.278A1.569,1.569,0,0,0,2.615,28.24H28.763a1.569,1.569,0,0,0,1.569-1.569V19.394a1.576,1.576,0,0,0,1.046-1.477V6.276A1.569,1.569,0,0,0,29.809,4.707ZM9.413,2.615a1.569,1.569,0,0,1,1.569-1.569H20.4a1.569,1.569,0,0,1,1.569,1.569V4.707H20.919V2.615a.523.523,0,0,0-.523-.523H10.982a.523.523,0,0,0-.523.523V4.707H9.413ZM19.873,4.707H11.505V3.138h8.367Zm9.413,21.965a.523.523,0,0,1-.523.523H2.615a.523.523,0,0,1-.523-.523v-7.1L13.6,21.16v1.328a1.569,1.569,0,0,0,1.569,1.569h1.046a1.569,1.569,0,0,0,1.569-1.569V21.16l11.505-1.587ZM16.735,22.488a.523.523,0,0,1-.523.523H15.166a.523.523,0,0,1-.523-.523V19.35a.523.523,0,0,1,.523-.523h1.046a.523.523,0,0,1,.523.523Zm13.6-4.571a.523.523,0,0,1-.45.518l-.145.02L17.781,20.1V19.35a1.569,1.569,0,0,0-1.569-1.569H15.166A1.569,1.569,0,0,0,13.6,19.35V20.1L1.5,18.435a.523.523,0,0,1-.45-.518V6.276a.523.523,0,0,1,.523-.523h28.24a.523.523,0,0,1,.523.523Zm0,0" fill="#4b4b4b"/>
</svg>
