<svg xmlns="http://www.w3.org/2000/svg" width="98.307" height="21.678" viewBox="0 0 98.307 21.678">
  <g id="sripta-logo" transform="translate(-286.423 -223.022)">
    <g id="Group_52" data-name="Group 52" transform="translate(315.047 229.043)">
      <path id="Path_87" data-name="Path 87" d="M494.43,267.952a.377.377,0,0,1-.268.1h-.936a.6.6,0,0,1-.335-.08.71.71,0,0,1-.214-.241,1.658,1.658,0,0,0-.656-.6,2.5,2.5,0,0,0-1.164-.227,2.348,2.348,0,0,0-1.218.294.89.89,0,0,0-.495.789.816.816,0,0,0,.234.623,1.821,1.821,0,0,0,.729.368q.495.148,1.619.388a5.3,5.3,0,0,1,2.342.977,2.17,2.17,0,0,1,.723,1.726,2.365,2.365,0,0,1-.468,1.439,3.077,3.077,0,0,1-1.345,1,5.821,5.821,0,0,1-3.928.04,3.456,3.456,0,0,1-1.405-.917,2.152,2.152,0,0,1-.575-1.358.3.3,0,0,1,.094-.261.376.376,0,0,1,.267-.1h.937a.633.633,0,0,1,.341.08.583.583,0,0,1,.207.241,1.727,1.727,0,0,0,.663.7,2.687,2.687,0,0,0,1.345.261,3.408,3.408,0,0,0,1.472-.281.9.9,0,0,0,.589-.843.643.643,0,0,0-.227-.515,1.809,1.809,0,0,0-.642-.321q-.415-.127-1.258-.328-.335-.067-.87-.2a4.451,4.451,0,0,1-2.027-.95,2.624,2.624,0,0,1-.16-3.185,3.061,3.061,0,0,1,1.265-.984,4.4,4.4,0,0,1,1.793-.355,4.6,4.6,0,0,1,1.947.381,3.187,3.187,0,0,1,1.251.957,2.162,2.162,0,0,1,.469,1.124A.3.3,0,0,1,494.43,267.952Z" transform="translate(-487.069 -265.229)" fill="#fff"/>
      <path id="Path_88" data-name="Path 88" d="M556.954,271.412a.377.377,0,0,1,.267.1.3.3,0,0,1,.094.261,3.237,3.237,0,0,1-.488,1.486,3.189,3.189,0,0,1-1.311,1.157,4.777,4.777,0,0,1-2.188.449,3.811,3.811,0,0,1-2.81-1.01,3.992,3.992,0,0,1-1.124-2.683q-.026-.669-.027-1.124t.027-1.124a3.994,3.994,0,0,1,1.124-2.683,3.813,3.813,0,0,1,2.81-1.01,4.777,4.777,0,0,1,2.188.449,3.2,3.2,0,0,1,1.311,1.157,3.238,3.238,0,0,1,.488,1.486.3.3,0,0,1-.094.261.375.375,0,0,1-.267.1H555.87a.408.408,0,0,1-.254-.094.39.39,0,0,1-.147-.254,1.634,1.634,0,0,0-.636-1.017,2.394,2.394,0,0,0-1.506-.415,2.027,2.027,0,0,0-1.532.562,2.211,2.211,0,0,0-.6,1.458q-.027.67-.027,1.124t.027,1.124a2.213,2.213,0,0,0,.6,1.459,2.028,2.028,0,0,0,1.532.562,2.42,2.42,0,0,0,1.512-.415,1.621,1.621,0,0,0,.642-1.017.4.4,0,0,1,.141-.254.383.383,0,0,1,.247-.094Z" transform="translate(-540.479 -265.229)" fill="#fff"/>
      <path id="Path_89" data-name="Path 89" d="M622.4,266.943a2.718,2.718,0,0,1,.883,2.155,2.959,2.959,0,0,1-.455,1.666,2.688,2.688,0,0,1-1.311,1.023l1.847,3.306a.338.338,0,0,1,.04.147.3.3,0,0,1-.294.294h-1.137a.611.611,0,0,1-.576-.361l-1.753-3.118h-1.78v3.118a.366.366,0,0,1-.362.361h-1.084a.366.366,0,0,1-.362-.361v-8.645a.366.366,0,0,1,.362-.362h3.453A3.715,3.715,0,0,1,622.4,266.943Zm-2.6,3.439a2.229,2.229,0,0,0,1.244-.288,1.111,1.111,0,0,0,.428-1,1.084,1.084,0,0,0-.421-.984,2.318,2.318,0,0,0-1.251-.274h-1.94v2.543Z" transform="translate(-597.657 -266.033)" fill="#fff"/>
      <path id="Path_90" data-name="Path 90" d="M679.019,275.428a.348.348,0,0,1-.107-.254v-8.645a.366.366,0,0,1,.362-.362h1.084a.366.366,0,0,1,.362.362v8.645a.366.366,0,0,1-.362.361h-1.084A.348.348,0,0,1,679.019,275.428Z" transform="translate(-651.544 -266.033)" fill="#fff"/>
      <path id="Path_91" data-name="Path 91" d="M712.671,266.937a2.775,2.775,0,0,1,.9,2.228,2.816,2.816,0,0,1-.9,2.242,3.7,3.7,0,0,1-2.516.783h-2.141v2.984a.366.366,0,0,1-.362.361h-1.084a.366.366,0,0,1-.362-.361v-8.645a.366.366,0,0,1,.362-.362h3.586A3.747,3.747,0,0,1,712.671,266.937Zm-2.583,3.58a2.089,2.089,0,0,0,1.238-.314,1.193,1.193,0,0,0,.435-1.037,1.163,1.163,0,0,0-.428-1.023,2.152,2.152,0,0,0-1.244-.3h-2.074v2.676Z" transform="translate(-674.945 -266.033)" fill="#fff"/>
      <path id="Path_92" data-name="Path 92" d="M770.015,266.274a.348.348,0,0,1,.107.254v.95a.367.367,0,0,1-.362.362h-2.409v7.334a.365.365,0,0,1-.361.361h-1.084a.365.365,0,0,1-.361-.361V267.84h-2.409a.367.367,0,0,1-.362-.362v-.95a.366.366,0,0,1,.362-.362h6.624A.348.348,0,0,1,770.015,266.274Z" transform="translate(-723.443 -266.033)" fill="#fff"/>
      <path id="Path_93" data-name="Path 93" d="M816.485,266.274a.843.843,0,0,1,.194.348l3.279,8.458a.311.311,0,0,1,.014.094.367.367,0,0,1-.362.361h-.965a.5.5,0,0,1-.52-.335l-.576-1.486H813.32l-.576,1.486a.5.5,0,0,1-.522.335h-.964a.365.365,0,0,1-.361-.361.284.284,0,0,1,.014-.094l3.278-8.458a.839.839,0,0,1,.194-.348.44.44,0,0,1,.314-.107h1.472A.441.441,0,0,1,816.485,266.274Zm-1.05,1.954-1.472,3.814h2.944Z" transform="translate(-764.701 -266.033)" fill="#fff"/>
      <path id="Path_94" data-name="Path 94" d="M902.09,275.428a.349.349,0,0,1-.106-.254v-8.645a.365.365,0,0,1,.361-.362h1.085a.365.365,0,0,1,.361.362v8.645a.364.364,0,0,1-.361.361h-1.085A.349.349,0,0,1,902.09,275.428Z" transform="translate(-842.793 -266.033)" fill="#fff"/>
      <path id="Path_95" data-name="Path 95" d="M931.269,266.274a.349.349,0,0,1,.107.254v.95a.367.367,0,0,1-.362.362h-2.409v7.334a.364.364,0,0,1-.361.361h-1.084a.366.366,0,0,1-.361-.361V267.84h-2.409a.365.365,0,0,1-.361-.362v-.95a.365.365,0,0,1,.361-.362h6.625A.349.349,0,0,1,931.269,266.274Z" transform="translate(-861.694 -266.033)" fill="#fff"/>
    </g>
    <path id="Path_96" data-name="Path 96" d="M293.243,242.893a.634.634,0,0,1,.168.44v.741a.634.634,0,0,1-.168.44.526.526,0,0,1-.4.185,3.915,3.915,0,0,1-3.4-1.772,8.336,8.336,0,0,1-1.231-4.829,7.032,7.032,0,0,0-.221-2,1.727,1.727,0,0,0-.894-1.054,1.378,1.378,0,0,1-.495-.405.863.863,0,0,1-.179-.521v-.533a.863.863,0,0,1,.179-.521,1.382,1.382,0,0,1,.495-.405,1.727,1.727,0,0,0,.894-1.042,6.907,6.907,0,0,0,.221-1.992,8.336,8.336,0,0,1,1.231-4.829,3.915,3.915,0,0,1,3.4-1.772.525.525,0,0,1,.4.185.634.634,0,0,1,.168.44v.741a.634.634,0,0,1-.168.44.524.524,0,0,1-.4.185,2.194,2.194,0,0,0-2.041,1.2,8.718,8.718,0,0,0-.673,4.007,6.045,6.045,0,0,1-.379,2.246,2.6,2.6,0,0,1-1.116,1.367,2.492,2.492,0,0,1,1.116,1.367,6.3,6.3,0,0,1,.379,2.293,8.717,8.717,0,0,0,.673,4.007,2.194,2.194,0,0,0,2.041,1.2A.524.524,0,0,1,293.243,242.893Zm.662-2.8a.629.629,0,0,1-.131-.4v-.673a.629.629,0,0,1,.131-.4.387.387,0,0,1,.313-.169h9.451a.387.387,0,0,1,.312.169.63.63,0,0,1,.132.4v.673a.63.63,0,0,1-.132.4.387.387,0,0,1-.312.169h-9.451A.387.387,0,0,1,293.9,240.091Zm14.061-7.619a6.045,6.045,0,0,1-.379-2.246,8.723,8.723,0,0,0-.673-4.007,2.2,2.2,0,0,0-2.042-1.2.522.522,0,0,1-.4-.185.632.632,0,0,1-.168-.44v-.741a.632.632,0,0,1,.168-.44.523.523,0,0,1,.4-.185,3.916,3.916,0,0,1,3.4,1.772,8.339,8.339,0,0,1,1.231,4.829,6.919,6.919,0,0,0,.221,1.992,1.728,1.728,0,0,0,.894,1.042,1.385,1.385,0,0,1,.495.405.865.865,0,0,1,.179.521v.533a.865.865,0,0,1-.179.521,1.381,1.381,0,0,1-.495.405,1.728,1.728,0,0,0-.894,1.054,7.044,7.044,0,0,0-.221,2,8.339,8.339,0,0,1-1.231,4.829,3.916,3.916,0,0,1-3.4,1.772.524.524,0,0,1-.4-.185.632.632,0,0,1-.168-.44v-.741a.632.632,0,0,1,.168-.44.522.522,0,0,1,.4-.185,2.2,2.2,0,0,0,2.042-1.2,8.723,8.723,0,0,0,.673-4.007,6.3,6.3,0,0,1,.379-2.293,2.491,2.491,0,0,1,1.115-1.367A2.6,2.6,0,0,1,307.965,232.471Z" fill="#fff"/>
    <g id="Group_53" data-name="Group 53" transform="translate(315.432 241.353)">
      <path id="Path_97" data-name="Path 97" d="M491.812,352.272a.1.1,0,0,1-.074.028h-.26a.166.166,0,0,1-.093-.022.2.2,0,0,1-.059-.067.457.457,0,0,0-.182-.167.692.692,0,0,0-.323-.063.651.651,0,0,0-.338.082.247.247,0,0,0-.137.219.226.226,0,0,0,.065.172.5.5,0,0,0,.2.1q.137.041.449.108a1.47,1.47,0,0,1,.649.271.6.6,0,0,1,.2.478.656.656,0,0,1-.13.4.852.852,0,0,1-.373.276,1.614,1.614,0,0,1-1.089.011.958.958,0,0,1-.389-.254.6.6,0,0,1-.159-.377.084.084,0,0,1,.026-.072.1.1,0,0,1,.074-.028h.26a.177.177,0,0,1,.095.022.162.162,0,0,1,.057.067.48.48,0,0,0,.184.195.745.745,0,0,0,.373.072.945.945,0,0,0,.408-.078.249.249,0,0,0,.163-.234.178.178,0,0,0-.063-.143.5.5,0,0,0-.178-.089q-.115-.035-.349-.091-.093-.019-.241-.056a1.231,1.231,0,0,1-.562-.263.727.727,0,0,1-.044-.883.849.849,0,0,1,.35-.273,1.218,1.218,0,0,1,.5-.1,1.274,1.274,0,0,1,.54.106.885.885,0,0,1,.347.265.6.6,0,0,1,.13.312A.084.084,0,0,1,491.812,352.272Z" transform="translate(-489.771 -351.517)" fill="#fff"/>
      <path id="Path_98" data-name="Path 98" d="M510.152,351.8a1.071,1.071,0,0,1,.3.727q.008.171.007.3,0,.167-.007.367a1.091,1.091,0,0,1-2.181,0q-.008-.2-.007-.367,0-.126.007-.3a1.073,1.073,0,0,1,.3-.725,1.268,1.268,0,0,1,1.588,0Zm-1.211.334a.586.586,0,0,0-.172.412q-.008.186-.007.312t.007.315a.579.579,0,0,0,.172.41.668.668,0,0,0,.835,0,.579.579,0,0,0,.172-.41q.008-.093.007-.315t-.007-.312a.61.61,0,0,0-1.007-.412Z" transform="translate(-505.622 -351.517)" fill="#fff"/>
      <path id="Path_99" data-name="Path 99" d="M530.023,353.939a.1.1,0,0,1,.03.07v.263a.1.1,0,0,1-.1.1h-1.625a.1.1,0,0,1-.1-.1v-2.4a.1.1,0,0,1,.1-.1h.3a.1.1,0,0,1,.1.1v2.033h1.224A.1.1,0,0,1,530.023,353.939Z" transform="translate(-522.742 -351.74)" fill="#fff"/>
      <path id="Path_100" data-name="Path 100" d="M546.315,351.807a.1.1,0,0,1,.03.07V353.4a1,1,0,0,1-.274.74,1.284,1.284,0,0,1-1.58,0,1,1,0,0,1-.271-.742v-1.521a.1.1,0,0,1,.1-.1h.3a.1.1,0,0,1,.1.1v1.5a.56.56,0,0,0,.148.43.583.583,0,0,0,.412.137.6.6,0,0,0,.415-.137.552.552,0,0,0,.152-.43v-1.5a.1.1,0,0,1,.1-.1h.3A.1.1,0,0,1,546.315,351.807Z" transform="translate(-536.452 -351.74)" fill="#fff"/>
      <path id="Path_101" data-name="Path 101" d="M564.788,351.807a.1.1,0,0,1,.03.07v.263a.1.1,0,0,1-.1.1h-.667v2.033a.1.1,0,0,1-.1.1h-.3a.1.1,0,0,1-.1-.1v-2.033h-.668a.1.1,0,0,1-.1-.1v-.263a.1.1,0,0,1,.1-.1h1.836A.1.1,0,0,1,564.788,351.807Z" transform="translate(-552.366 -351.74)" fill="#fff"/>
      <path id="Path_102" data-name="Path 102" d="M580.882,354.344a.1.1,0,0,1-.03-.07v-2.4a.1.1,0,0,1,.1-.1h.3a.1.1,0,0,1,.1.1v2.4a.1.1,0,0,1-.1.1h-.3A.1.1,0,0,1,580.882,354.344Z" transform="translate(-567.859 -351.74)" fill="#fff"/>
      <path id="Path_103" data-name="Path 103" d="M590.828,351.8a1.071,1.071,0,0,1,.3.727q.007.171.007.3,0,.167-.007.367a1.091,1.091,0,0,1-2.181,0q-.008-.2-.008-.367,0-.126.008-.3a1.073,1.073,0,0,1,.3-.725,1.268,1.268,0,0,1,1.588,0Zm-1.211.334a.585.585,0,0,0-.172.412q-.008.186-.007.312t.007.315a.578.578,0,0,0,.172.41.668.668,0,0,0,.834,0,.578.578,0,0,0,.172-.41q.008-.093.008-.315t-.008-.312a.61.61,0,0,0-1.007-.412Z" transform="translate(-574.789 -351.517)" fill="#fff"/>
      <path id="Path_104" data-name="Path 104" d="M610.444,354.288l-1.039-1.543v1.528a.1.1,0,0,1-.1.1h-.3a.1.1,0,0,1-.1-.1v-2.4a.1.1,0,0,1,.1-.1h.26a.173.173,0,0,1,.145.085l1.038,1.543v-1.528a.1.1,0,0,1,.1-.1h.3a.1.1,0,0,1,.1.1v2.4a.1.1,0,0,1-.1.1h-.26A.172.172,0,0,1,610.444,354.288Z" transform="translate(-591.91 -351.74)" fill="#fff"/>
      <path id="Path_105" data-name="Path 105" d="M629.4,352.272a.1.1,0,0,1-.074.028h-.26a.166.166,0,0,1-.093-.022.2.2,0,0,1-.059-.067.457.457,0,0,0-.182-.167.693.693,0,0,0-.323-.063.65.65,0,0,0-.337.082.247.247,0,0,0-.137.219.227.227,0,0,0,.065.172.506.506,0,0,0,.2.1q.137.041.449.108a1.47,1.47,0,0,1,.649.271.6.6,0,0,1,.2.478.656.656,0,0,1-.13.4.853.853,0,0,1-.373.276,1.614,1.614,0,0,1-1.089.011.958.958,0,0,1-.389-.254.6.6,0,0,1-.159-.377.084.084,0,0,1,.026-.072.1.1,0,0,1,.074-.028h.259a.177.177,0,0,1,.095.022.164.164,0,0,1,.057.067.48.48,0,0,0,.184.195.745.745,0,0,0,.373.072.945.945,0,0,0,.408-.078.25.25,0,0,0,.163-.234.178.178,0,0,0-.063-.143.5.5,0,0,0-.178-.089q-.115-.035-.349-.091-.092-.019-.241-.056a1.231,1.231,0,0,1-.562-.263.727.727,0,0,1-.044-.883.85.85,0,0,1,.35-.273,1.218,1.218,0,0,1,.5-.1,1.274,1.274,0,0,1,.54.106.885.885,0,0,1,.347.265.6.6,0,0,1,.13.312A.084.084,0,0,1,629.4,352.272Z" transform="translate(-607.733 -351.517)" fill="#fff"/>
      <path id="Path_106" data-name="Path 106" d="M655.784,353.075c0,.121,0,.213-.007.274a1.118,1.118,0,0,1-.3.755,1.075,1.075,0,0,1-.79.269h-.935a.1.1,0,0,1-.1-.1v-2.4a.1.1,0,0,1,.1-.1h.916a.991.991,0,0,1,1.109,1.024C655.781,352.862,655.784,352.954,655.784,353.075Zm-1.632-.835v1.669h.516a.6.6,0,0,0,.443-.152.608.608,0,0,0,.165-.408c0-.062.007-.153.007-.274s0-.213-.007-.275a.6.6,0,0,0-.169-.408.626.626,0,0,0-.458-.152Z" transform="translate(-630.272 -351.74)" fill="#fff"/>
      <path id="Path_107" data-name="Path 107" d="M673.652,353.91h1.228a.1.1,0,0,1,.1.1v.263a.1.1,0,0,1-.1.1h-1.628a.1.1,0,0,1-.1-.1v-2.4a.1.1,0,0,1,.1-.1h1.6a.1.1,0,0,1,.1.1v.263a.1.1,0,0,1-.1.1h-1.2v.59h1.116a.1.1,0,0,1,.1.1v.263a.1.1,0,0,1-.1.1h-1.116Z" transform="translate(-646.99 -351.74)" fill="#fff"/>
      <path id="Path_108" data-name="Path 108" d="M692.183,353.939a.1.1,0,0,1,.03.07v.263a.1.1,0,0,1-.1.1h-1.624a.1.1,0,0,1-.1-.1v-2.4a.1.1,0,0,1,.1-.1h.3a.1.1,0,0,1,.1.1v2.033h1.224A.1.1,0,0,1,692.183,353.939Z" transform="translate(-661.768 -351.74)" fill="#fff"/>
      <path id="Path_109" data-name="Path 109" d="M706.9,354.344a.1.1,0,0,1-.03-.07v-2.4a.1.1,0,0,1,.1-.1h.3a.1.1,0,0,1,.1.1v2.4a.1.1,0,0,1-.1.1h-.3A.1.1,0,0,1,706.9,354.344Z" transform="translate(-675.901 -351.74)" fill="#fff"/>
      <path id="Path_110" data-name="Path 110" d="M716.084,351.87a.123.123,0,0,1,.122-.093h.282a.1.1,0,0,1,.1.1.123.123,0,0,1-.007.037l-.831,2.333a.233.233,0,0,1-.054.1.122.122,0,0,1-.087.03h-.3a.122.122,0,0,1-.087-.03.233.233,0,0,1-.054-.1l-.831-2.333a.118.118,0,0,1-.008-.037.1.1,0,0,1,.1-.1h.282a.123.123,0,0,1,.122.093l.623,1.769Z" transform="translate(-682.297 -351.74)" fill="#fff"/>
      <path id="Path_111" data-name="Path 111" d="M734.595,353.91h1.228a.1.1,0,0,1,.1.1v.263a.1.1,0,0,1-.1.1h-1.628a.1.1,0,0,1-.1-.1v-2.4a.1.1,0,0,1,.1-.1h1.6a.1.1,0,0,1,.1.1v.263a.1.1,0,0,1-.1.1h-1.2v.59h1.116a.1.1,0,0,1,.1.1v.263a.1.1,0,0,1-.1.1h-1.116Z" transform="translate(-699.239 -351.74)" fill="#fff"/>
      <path id="Path_112" data-name="Path 112" d="M753.09,351.992a.753.753,0,0,1,.245.6.819.819,0,0,1-.126.462.745.745,0,0,1-.364.284l.512.916a.092.092,0,0,1,.011.041.082.082,0,0,1-.081.082h-.315a.169.169,0,0,1-.159-.1l-.486-.864h-.493v.864a.1.1,0,0,1-.1.1h-.3a.1.1,0,0,1-.1-.1v-2.4a.1.1,0,0,1,.1-.1h.957A1.029,1.029,0,0,1,753.09,351.992Zm-.72.953a.618.618,0,0,0,.345-.08.308.308,0,0,0,.119-.276.3.3,0,0,0-.117-.273.642.642,0,0,0-.347-.076h-.538v.7Z" transform="translate(-714.018 -351.74)" fill="#fff"/>
      <path id="Path_113" data-name="Path 113" d="M770.133,351.807a.1.1,0,0,1,.03.07.072.072,0,0,1-.007.033l-.879,1.547v.816a.1.1,0,0,1-.1.1h-.3a.1.1,0,0,1-.1-.1v-.816l-.879-1.547a.071.071,0,0,1-.007-.033.1.1,0,0,1,.1-.1h.278a.157.157,0,0,1,.1.032.193.193,0,0,1,.054.061l.6,1.05.6-1.05a.2.2,0,0,1,.054-.061.157.157,0,0,1,.1-.032h.278A.1.1,0,0,1,770.133,351.807Z" transform="translate(-728.217 -351.74)" fill="#fff"/>
    </g>
  </g>
</svg>
